<svg preserveAspectRatio="none" overflow="visible" style="display: block;" width="56" height="56" viewBox="0 0 56 56" fill="none" xmlns="http://www.w3.org/2000/svg">
<g id="&#240;&#159;&#148;&#165; &#235;&#182;&#136;" clip-path="url(#clip0_0_84)">
<g id="Vector">
</g>
<g id="Group">
<path id="Vector_2" d="M36.5834 15.4976C37.156 19.3182 37.821 21.505 35.0882 21.505C31.3698 21.505 31.3684 12.7046 25.0754 7.69119C18.8496 2.73239 14.2058 3.93779 14.1078 3.96439C14.1064 3.96579 14.1036 3.96859 14.1022 3.96999C19.2878 8.29879 16.3954 15.4136 13.0018 17.375C9.7454 19.2566 6.0284 16.8836 7.9744 11.299C3.6946 17.151 0 24.242 0 31.3078C0 42.8368 9.3464 52.1832 20.8754 52.1832C32.4044 52.1832 41.7508 42.8368 41.7508 31.3078C41.7508 25.8604 39.55 20.3976 36.5834 15.4976Z" fill="#EF4452"/>
<path id="Vector_3" d="M20.8754 28.0248C20.8754 28.0248 29.953 33.2524 29.953 40.5562C29.953 45.5696 25.8888 49.6338 20.8754 49.6338C15.862 49.6338 11.7978 45.5696 11.7978 40.5562C11.7978 33.2524 20.8754 28.0248 20.8754 28.0248Z" fill="#FF7978"/>
</g>
</g>
<defs>
<clipPath id="clip0_0_84">
<rect width="56" height="56" fill="white"/>
</clipPath>
</defs>
</svg>
